<svg xmlns="http://www.w3.org/2000/svg" width="256" height="256" viewBox="0 0 256 256">
  <defs>
    <radialGradient id="g" cx="35%" cy="30%" r="75%">
      <stop offset="0" stop-color="#ffffff"/>
      <stop offset="0.55" stop-color="#eef1f5"/>
      <stop offset="1" stop-color="#c9d0d9"/>
    </radialGradient>
    <linearGradient id="rim" x1="0" y1="0" x2="0" y2="1">
      <stop offset="0" stop-color="#92a0af"/>
      <stop offset="1" stop-color="#657383"/>
    </linearGradient>
    <filter id="s" x="-20%" y="-20%" width="140%" height="140%">
      <feDropShadow dx="0" dy="8" stdDeviation="8" flood-color="#000000" flood-opacity="0.18"/>
    </filter>
    <linearGradient id="tone" x1="0" y1="0" x2="1" y2="1">
      <stop offset="0" stop-color="#ffb74d" stop-opacity="0.20"/>
      <stop offset="0.5" stop-color="#66bb6a" stop-opacity="0.18"/>
      <stop offset="1" stop-color="#42a5f5" stop-opacity="0.18"/>
    </linearGradient>
  </defs>

  <g filter="url(#s)">
    <circle cx="128" cy="128" r="116" fill="url(#g)" stroke="url(#rim)" stroke-width="10"/>
    <circle cx="128" cy="128" r="96" fill="none" stroke="#92a0af" stroke-opacity="0.30" stroke-width="2"/>
    <circle cx="128" cy="128" r="92" fill="url(#tone)" opacity="0.85"/>
  </g>

  <g>
    <rect x="34" y="34" width="70" height="34" rx="17" fill="#2e7d6b" opacity="0.95"/>
    <text x="69" y="57" text-anchor="middle" font-family="ui-sans-serif, system-ui, -apple-system, Segoe UI, Roboto, Arial" font-size="18" font-weight="900" fill="#ffffff">BU</text>
  </g>

  <!-- Simple commemorative reverse “scene” -->
  <path d="M88 164h80" stroke="#6b7785" stroke-opacity="0.30" stroke-width="8" stroke-linecap="round"/>
  <path d="M100 160v-26c0-8 6-14 14-14h28c8 0 14 6 14 14v26"
        fill="none" stroke="#6b7785" stroke-opacity="0.28" stroke-width="6" stroke-linejoin="round"/>
  <path d="M116 122v38M140 122v38" stroke="#6b7785" stroke-opacity="0.28" stroke-width="6" stroke-linecap="round"/>
  <path d="M112 118h32" stroke="#6b7785" stroke-opacity="0.28" stroke-width="6" stroke-linecap="round"/>

  <text x="128" y="214" text-anchor="middle" font-family="ui-sans-serif, system-ui, -apple-system, Segoe UI, Roboto, Arial" font-size="24" font-weight="950" fill="#1b2028">COMM</text>
</svg>

