<svg xmlns="http://www.w3.org/2000/svg" width="256" height="256" viewBox="0 0 256 256">
  <defs>
    <radialGradient id="g" cx="35%" cy="30%" r="75%">
      <stop offset="0" stop-color="#ffffff"/>
      <stop offset="0.55" stop-color="#eef1f5"/>
      <stop offset="1" stop-color="#ccd3dc"/>
    </radialGradient>
    <linearGradient id="rim" x1="0" y1="0" x2="0" y2="1">
      <stop offset="0" stop-color="#93a0ae"/>
      <stop offset="1" stop-color="#657281"/>
    </linearGradient>
    <filter id="s" x="-20%" y="-20%" width="140%" height="140%">
      <feDropShadow dx="0" dy="8" stdDeviation="8" flood-color="#000000" flood-opacity="0.18"/>
    </filter>
  </defs>

  <g filter="url(#s)">
    <circle cx="128" cy="128" r="116" fill="url(#g)" stroke="url(#rim)" stroke-width="10"/>
    <circle cx="128" cy="128" r="96" fill="none" stroke="#93a0ae" stroke-opacity="0.30" stroke-width="2"/>
  </g>

  <g>
    <rect x="34" y="34" width="70" height="34" rx="17" fill="#2e7d6b" opacity="0.95"/>
    <text x="69" y="57" text-anchor="middle" font-family="ui-sans-serif, system-ui, -apple-system, Segoe UI, Roboto, Arial" font-size="18" font-weight="900" fill="#ffffff">BU</text>
  </g>

  <!-- “Barber-ish” profile -->
  <path d="M106 92c12-14 34-18 50-8 16 10 24 30 20 48-4 18-20 32-38 36-18 4-38-4-48-18-10-14-12-40 16-58Z"
        fill="#6a7684" fill-opacity="0.28"/>
  <path d="M132 110c-4 10-2 20 6 28"
        fill="none" stroke="#6a7684" stroke-opacity="0.28" stroke-width="6" stroke-linecap="round"/>

  <text x="128" y="214" text-anchor="middle" font-family="ui-sans-serif, system-ui, -apple-system, Segoe UI, Roboto, Arial" font-size="34" font-weight="950" fill="#1b2028">10¢</text>
</svg>

