<svg xmlns="http://www.w3.org/2000/svg" width="256" height="256" viewBox="0 0 256 256">
  <defs>
    <radialGradient id="g" cx="35%" cy="30%" r="75%">
      <stop offset="0" stop-color="#ffffff"/>
      <stop offset="0.55" stop-color="#e9edf2"/>
      <stop offset="1" stop-color="#c7ced7"/>
    </radialGradient>
    <linearGradient id="rim" x1="0" y1="0" x2="0" y2="1">
      <stop offset="0" stop-color="#8b96a3"/>
      <stop offset="1" stop-color="#616c78"/>
    </linearGradient>
    <filter id="s" x="-20%" y="-20%" width="140%" height="140%">
      <feDropShadow dx="0" dy="8" stdDeviation="8" flood-color="#000000" flood-opacity="0.18"/>
    </filter>
  </defs>

  <g filter="url(#s)">
    <circle cx="128" cy="128" r="116" fill="url(#g)" stroke="url(#rim)" stroke-width="10"/>
    <circle cx="128" cy="128" r="96" fill="none" stroke="#8b96a3" stroke-opacity="0.30" stroke-width="2"/>
  </g>

  <g>
    <rect x="34" y="34" width="70" height="34" rx="17" fill="#2e7d6b" opacity="0.95"/>
    <text x="69" y="57" text-anchor="middle" font-family="ui-sans-serif, system-ui, -apple-system, Segoe UI, Roboto, Arial" font-size="18" font-weight="900" fill="#ffffff">BU</text>
  </g>

  <!-- “Buffalo-ish” block silhouette -->
  <path d="M74 152c8-16 24-28 44-30 10-14 28-22 46-20 12 1 22 6 30 14 8 7 10 17 8 26-2 10-10 18-22 20H92c-10 0-18-4-18-10Z"
        fill="#5f6a76" fill-opacity="0.28"/>
  <path d="M92 160c-4 10 4 18 16 18h14c2 10 10 16 22 16s20-6 22-16h10c10 0 18-6 18-14"
        fill="none" stroke="#5f6a76" stroke-opacity="0.28" stroke-width="6" stroke-linecap="round"/>

  <text x="128" y="214" text-anchor="middle" font-family="ui-sans-serif, system-ui, -apple-system, Segoe UI, Roboto, Arial" font-size="34" font-weight="950" fill="#1b2028">5¢</text>
</svg>

