<svg xmlns="http://www.w3.org/2000/svg" width="256" height="256" viewBox="0 0 256 256">
  <defs>
    <radialGradient id="g" cx="35%" cy="30%" r="75%">
      <stop offset="0" stop-color="#ffffff"/>
      <stop offset="0.55" stop-color="#eef1f5"/>
      <stop offset="1" stop-color="#c9d0d9"/>
    </radialGradient>
    <linearGradient id="rim" x1="0" y1="0" x2="0" y2="1">
      <stop offset="0" stop-color="#92a0af"/>
      <stop offset="1" stop-color="#657383"/>
    </linearGradient>
    <filter id="s" x="-20%" y="-20%" width="140%" height="140%">
      <feDropShadow dx="0" dy="8" stdDeviation="8" flood-color="#000000" flood-opacity="0.18"/>
    </filter>
  </defs>

  <g filter="url(#s)">
    <circle cx="128" cy="128" r="116" fill="url(#g)" stroke="url(#rim)" stroke-width="10"/>
    <circle cx="128" cy="128" r="96" fill="none" stroke="#92a0af" stroke-opacity="0.30" stroke-width="2"/>
  </g>

  <g>
    <rect x="34" y="34" width="70" height="34" rx="17" fill="#2e7d6b" opacity="0.95"/>
    <text x="69" y="57" text-anchor="middle" font-family="ui-sans-serif, system-ui, -apple-system, Segoe UI, Roboto, Arial" font-size="18" font-weight="900" fill="#ffffff">BU</text>
  </g>

  <!-- “Standing Liberty-ish” figure -->
  <path d="M124 84c10 0 18 10 18 22v16c0 6 2 12 6 18l10 14c4 6 0 14-8 14h-52c-8 0-12-8-8-14l10-14c4-6 6-12 6-18v-16c0-12 8-22 18-22Z"
        fill="#6b7785" fill-opacity="0.26"/>
  <path d="M102 128h52" stroke="#6b7785" stroke-opacity="0.26" stroke-width="6" stroke-linecap="round"/>

  <text x="128" y="214" text-anchor="middle" font-family="ui-sans-serif, system-ui, -apple-system, Segoe UI, Roboto, Arial" font-size="34" font-weight="950" fill="#1b2028">25¢</text>
</svg>

